<svg xmlns="http://www.w3.org/2000/svg" viewBox="0 0 1268.65 283.39"><defs><style>.cls-1{fill:#183658;}.cls-2{fill:#f1c32f;}.cls-3{fill:#0083ba;}.cls-4{fill:#079038;}.cls-5{fill:#935da2;}.cls-6{fill:#e72073;}.cls-7{fill:#7dcbdf;}.cls-8{fill:#39bddf;}.cls-9{fill:#1a2e46;}.cls-10{fill:#00b5e6;}.cls-11{fill:#1463ae;}.cls-12{fill:#991914;}</style></defs><title>logo_1</title><g id="Capa_2" data-name="Capa 2"><g id="Capa_1-2" data-name="Capa 1"><path class="cls-1" d="M428.23,239.89V226.81a26.39,26.39,0,0,1-10.46,10.65q-6.88,3.91-17.41,3.92-13.23,0-19.83-7.73t-6.77-22.52V159.06h4v52.22q.15,12.84,5.83,19.46t16.58,6.61q11.58,0,18.83-5.46t9.19-16V159.06h4.1v80.83Z"/><path class="cls-1" d="M486.87,241.38a32.56,32.56,0,0,1-18-5.26,36.22,36.22,0,0,1-12.81-14.46,44.64,44.64,0,0,1-4.63-20.4V197.9a46.79,46.79,0,0,1,4.48-20.54,35.53,35.53,0,0,1,12.33-14.57,30.27,30.27,0,0,1,17.11-5.23q13.51,0,22.11,9.64t8.59,25.32v4.26H455.49v4.4a40.63,40.63,0,0,0,4.15,18.23,32.6,32.6,0,0,0,11.43,13.17,28.29,28.29,0,0,0,15.8,4.77,32.11,32.11,0,0,0,13.86-2.71,28.24,28.24,0,0,0,10.12-8.35l2.84,2Q504.65,241.39,486.87,241.38Zm-1.49-79.78a26.41,26.41,0,0,0-20,8.77q-8.21,8.79-9.63,22.38h56.33v-1a34.1,34.1,0,0,0-3.48-15.28,26.67,26.67,0,0,0-9.56-11A24.59,24.59,0,0,0,485.38,161.6Z"/><path class="cls-1" d="M538.94,177.88A33.88,33.88,0,0,1,550.6,163a28.79,28.79,0,0,1,17-5.45q13,0,19.31,7.36t6.39,22.23v52.74h-4V187.05q-.07-13-5.3-19.22T567.4,161.6A25.13,25.13,0,0,0,549.29,169a37.63,37.63,0,0,0-10.35,19.14v51.73h-4V159.06h4Z"/><path class="cls-1" d="M627.69,137.24v21.82h18.38v4H627.69v57.43c0,5.74.94,10,2.8,12.72s5,4.11,9.38,4.11a59.12,59.12,0,0,0,8-.67l.68,3.81c-1.65.59-4.46.89-8.45.89q-8.8,0-12.62-4.9T623.58,221V163.09H608.64v-4h14.94V137.24Z"/><path class="cls-1" d="M719.28,239.89q-1.49-5.16-1.49-14.79a32.47,32.47,0,0,1-13.07,12A40.46,40.46,0,0,1,686,241.38q-11.21,0-18-6.09t-6.83-15.87q0-11.13,10-17.82t26.7-6.83h19.95V183q0-10.16-6.39-15.76t-18.26-5.6q-11.05,0-18.46,5.67t-7.39,14l-4-.15q0-9.87,8.67-16.74t21.22-6.87q13.07,0,20.77,6.54t7.91,18.41v38.63q0,13.29,2.1,18.08v.67ZM686,237.35q11.35,0,19.54-5.08A31.54,31.54,0,0,0,717.79,218V198.8H699.11q-17.33,0-26.52,6.87-7.47,5.61-7.47,14a16.06,16.06,0,0,0,5.9,12.55Q676.93,237.35,686,237.35Z"/><path class="cls-1" d="M797.65,220.09q0-14.72-25.1-20-15.09-3.21-21-8.26T745.66,178q0-8.9,7.5-14.65t19.54-5.75q13.06,0,21,6.24t7.92,16.85H797.5q0-8.15-6.87-13.6T772.7,161.6q-10.61,0-16.81,4.63c-4.13,3.09-6.2,6.94-6.2,11.58q0,5.44,2.32,8.55a19.78,19.78,0,0,0,7.54,5.6,77.31,77.31,0,0,0,15.24,4.82,65.11,65.11,0,0,1,15.84,5.46,21.42,21.42,0,0,1,8.44,7.43,19.85,19.85,0,0,1,2.62,10.5,18.28,18.28,0,0,1-7.85,15.39q-7.85,5.82-20.54,5.82-13.6,0-21.93-6.16T743,219.34h4a16.69,16.69,0,0,0,7.5,13.26q6.92,4.76,18.72,4.75,10.83,0,17.59-5T797.65,220.09Z"/><path class="cls-1" d="M851.37,237.35q11,0,18.11-5.83t7.81-16.14h4q-.6,11.73-9,18.87t-20.91,7.13q-15.17,0-24.1-11t-8.92-29.81V197.9q0-18.37,8.92-29.36t24-11q12.84,0,21.21,7.7t8.89,20.47h-4q-.52-10.92-7.66-17.52t-18.41-6.61q-13.53,0-21.18,9.74t-7.66,27.09V201q0,17,7.73,26.63T851.37,237.35Z"/><path class="cls-1" d="M906.57,239.89h-4V125.14h4Z"/><path class="cls-1" d="M985.32,239.89q-1.5-5.16-1.5-14.79a32.41,32.41,0,0,1-13.07,12A40.45,40.45,0,0,1,952,241.38q-11.21,0-18-6.09t-6.83-15.87q0-11.13,10-17.82t26.7-6.83h20V183q0-10.16-6.39-15.76t-18.26-5.6q-11.05,0-18.45,5.67t-7.4,14l-4-.15q0-9.87,8.66-16.74t21.22-6.87q13.07,0,20.77,6.54t7.92,18.41v38.63q0,13.29,2.09,18.08v.67ZM952,237.35q11.36,0,19.53-5.08A31.48,31.48,0,0,0,983.82,218V198.8H965.14q-17.32,0-26.52,6.87-7.47,5.61-7.47,14a16,16,0,0,0,5.91,12.55Q943,237.35,952,237.35Z"/><path class="cls-1" d="M1049.49,162l-5.23-.44a23.91,23.91,0,0,0-17.26,6.68q-6.94,6.67-9.11,18.69v52.92h-4V159.06h4v16.8a29.82,29.82,0,0,1,9.86-13.37q6.57-4.94,16.51-4.93a16,16,0,0,1,5.68.84Z"/><path class="cls-1" d="M1114.26,239.89q-1.5-5.16-1.49-14.79a32.43,32.43,0,0,1-13.08,12,40.45,40.45,0,0,1-18.75,4.26q-11.2,0-18-6.09t-6.84-15.87q0-11.13,10-17.82t26.71-6.83h20V183q0-10.16-6.39-15.76t-18.27-5.6q-11.05,0-18.45,5.67t-7.4,14l-4-.15q0-9.87,8.67-16.74t21.21-6.87q13.08,0,20.77,6.54t7.92,18.41v38.63q0,13.29,2.09,18.08v.67Zm-33.32-2.54q11.36,0,19.54-5.08A31.54,31.54,0,0,0,1112.77,218V198.8h-18.68q-17.34,0-26.52,6.87-7.47,5.61-7.47,14a16,16,0,0,0,5.9,12.55Q1071.9,237.35,1080.94,237.35Z"/><path class="cls-1" d="M1192.63,220.09q0-14.72-25.1-20-15.09-3.21-21-8.26t-5.9-13.85q0-8.9,7.51-14.65t19.54-5.75q13.07,0,21,6.24t7.92,16.85h-4.11q0-8.15-6.87-13.6t-17.93-5.45q-10.62,0-16.81,4.63c-4.14,3.09-6.2,6.94-6.2,11.58q0,5.44,2.31,8.55a19.9,19.9,0,0,0,7.55,5.6,76.86,76.86,0,0,0,15.24,4.82,65.11,65.11,0,0,1,15.84,5.46,21.49,21.49,0,0,1,8.44,7.43,19.85,19.85,0,0,1,2.61,10.5,18.27,18.27,0,0,1-7.84,15.39q-7.85,5.82-20.55,5.82-13.59,0-21.92-6.16T1138,219.34h4a16.7,16.7,0,0,0,7.51,13.26q6.92,4.76,18.71,4.75,10.83,0,17.6-5T1192.63,220.09Z"/><path class="cls-1" d="M1221,226.41c0-4.21.88-7.51,2.66-9.87A8.61,8.61,0,0,1,1231,213a10.14,10.14,0,0,1,5.26,1.35,9.92,9.92,0,0,1,3.7,4V202.39h1.32v37.5h-1.32v-4.23a9.23,9.23,0,0,1-3.69,3.48,11.17,11.17,0,0,1-5.32,1.24,8.52,8.52,0,0,1-7.25-3.64c-1.78-2.43-2.66-5.75-2.66-10Zm1.36.51q0,5.63,2.23,8.88a7.18,7.18,0,0,0,6.29,3.26,10.42,10.42,0,0,0,5.6-1.45,8.68,8.68,0,0,0,3.44-4.26V221q-2.28-6.67-9-6.67a7.3,7.3,0,0,0-6.31,3.2C1223.14,219.63,1222.38,222.77,1222.38,226.92Z"/><path class="cls-1" d="M1259.1,240.38a10.68,10.68,0,0,1-5.87-1.72,11.89,11.89,0,0,1-4.19-4.73,14.56,14.56,0,0,1-1.51-6.66v-1.1a15.31,15.31,0,0,1,1.47-6.72,11.56,11.56,0,0,1,4-4.76,9.89,9.89,0,0,1,5.59-1.71,9.24,9.24,0,0,1,7.23,3.15,12,12,0,0,1,2.81,8.28v1.39h-19.8v1.44a13.33,13.33,0,0,0,1.35,6,10.68,10.68,0,0,0,3.74,4.3,9.25,9.25,0,0,0,5.16,1.56,10.48,10.48,0,0,0,4.53-.89,9.24,9.24,0,0,0,3.31-2.72l.93.65Q1264.92,240.38,1259.1,240.38Zm-.49-26.08a8.63,8.63,0,0,0-6.54,2.87,12.22,12.22,0,0,0-3.15,7.31h18.41v-.31a11.15,11.15,0,0,0-1.14-5,8.69,8.69,0,0,0-3.12-3.59A8.1,8.1,0,0,0,1258.61,214.3Z"/><path class="cls-2" d="M87.26,93.45V61.54H54.64V94.16H85.48A6.69,6.69,0,0,1,87.26,93.45Z"/><rect class="cls-3" x="26.97" y="90.02" width="20.39" height="20.39"/><rect class="cls-3" y="90.44" width="8.35" height="8.35"/><rect class="cls-4" x="10.7" y="120.94" width="12.71" height="12.71"/><rect class="cls-4" x="22.09" y="146.37" width="8.24" height="8.24"/><rect class="cls-3" x="39.07" y="142.1" width="18.65" height="18.65"/><rect class="cls-5" x="57.21" y="160.75" width="32.4" height="32.4"/><rect class="cls-6" x="65.92" y="117.75" width="15.9" height="15.9"/><path class="cls-7" d="M101.23,193.15l11-4.55H99.55Q100.36,190.9,101.23,193.15Z"/><path class="cls-7" d="M123.63,120.57h27.23a84.45,84.45,0,0,1,2.79-8.95l-30-12.43v21.38"/><path class="cls-7" d="M123.63,154.58v29.29l30-12.43a84.57,84.57,0,0,1-4.4-16.86H123.63"/><path class="cls-8" d="M155.83,176.67,127,188.6h8V200H123.63V190l-20.22,8.37a141.88,141.88,0,0,0,27.66,41.34l40.11-40.11A85.26,85.26,0,0,1,155.83,176.67Z"/><path class="cls-8" d="M171.18,83.45,131.07,43.34a142,142,0,0,0-27.66,41.33L108,86.55h15.68v6.5l32.2,13.34A85.1,85.1,0,0,1,171.18,83.45Zm-23.26,7.43H136.48V79.44h11.44Z"/><path class="cls-9" d="M295.45,199.78l40.11,40.11a141.85,141.85,0,0,0,27.65-41.34l-52.42-21.71A85.46,85.46,0,0,1,295.45,199.78Z"/><path class="cls-10" d="M175.28,203.78,135.17,243.9a141.2,141.2,0,0,0,95.35,39.49V226.66A84.66,84.66,0,0,1,175.28,203.78Z"/><path class="cls-11" d="M236.19,226.66v56.73a141.21,141.21,0,0,0,95.36-39.49l-40.11-40.12A84.69,84.69,0,0,1,236.19,226.66Z"/><path class="cls-10" d="M230.52,56.73V0a141.21,141.21,0,0,0-95.35,39.5l40.11,40.11A84.66,84.66,0,0,1,230.52,56.73Z"/><path class="cls-11" d="M291.44,79.61,331.55,39.5A141.22,141.22,0,0,0,236.19,0V56.73A84.69,84.69,0,0,1,291.44,79.61Z"/><path class="cls-9" d="M310.79,106.55l52.42-21.71A142,142,0,0,0,335.56,43.5L295.45,83.62A85.25,85.25,0,0,1,310.79,106.55Z"/><path class="cls-4" d="M89.62,154.58h34v-34h-34"/><rect class="cls-12" x="164.22" y="148.25" width="11.44" height="11.44"/><rect class="cls-12" x="178.93" y="136.1" width="7.37" height="7.37"/></g></g></svg>